<?xml version="1.0" standalone="no"?>
<!DOCTYPE svg PUBLIC "-//W3C//DTD SVG 20010904//EN"
 "http://www.w3.org/TR/2001/REC-SVG-20010904/DTD/svg10.dtd">
<svg version="1.0" xmlns="http://www.w3.org/2000/svg"
 width="300.000000pt" height="83.000000pt" viewBox="0 0 300.000000 83.000000"
 preserveAspectRatio="xMidYMid meet">
<metadata>
Created by potrace 1.10, written by Peter Selinger 2001-2011
</metadata>
<g transform="translate(0.000000,83.000000) scale(0.100000,-0.100000)"
fill="#000000" stroke="none">
<path d="M213 718 c2 -18 -3 -23 -20 -21 -18 2 -23 -2 -23 -22 0 -19 5 -24 21
-22 21 2 21 0 19 -175 -1 -186 -3 -178 37 -178 4 0 7 79 7 176 l1 176 762 -1
763 0 0 25 0 24 -762 0 c-761 -1 -763 -1 -761 20 2 15 -3 20 -22 20 -20 0 -24
-5 -22 -22z"/>
<path d="M2765 413 l0 -178 -763 0 -762 0 0 -23 0 -22 763 0 c757 0 762 0 760
-20 -2 -15 3 -20 22 -20 20 0 24 5 22 22 -2 19 2 22 21 20 18 -3 22 2 22 22 0
21 -4 25 -22 23 l-22 -2 3 178 3 177 -23 0 -24 0 0 -177z"/>
<path d="M623 503 c-16 -6 -17 -55 -1 -71 7 -7 39 -12 74 -12 43 0 63 -4 67
-14 10 -25 -16 -36 -91 -36 -46 0 -71 -4 -67 -10 7 -11 143 -14 169 -4 10 4
16 18 16 40 0 41 -24 54 -101 54 -43 0 -50 3 -47 18 2 11 14 18 36 20 17 2 32
7 32 13 0 9 -65 11 -87 2z"/>
<path d="M819 506 c-2 -2 -3 -38 -1 -80 3 -59 7 -76 18 -76 9 0 14 7 12 18 -4
27 2 27 49 3 23 -11 49 -21 58 -21 28 0 16 17 -25 35 -23 10 -43 22 -46 26 -2
4 16 17 41 28 25 11 45 25 45 30 0 17 -16 13 -70 -14 -27 -14 -51 -25 -54 -25
-2 0 -2 18 1 40 4 31 2 40 -9 40 -8 0 -17 -2 -19 -4z"/>
<path d="M998 503 c-9 -19 4 -153 15 -153 15 0 14 153 -1 158 -6 2 -12 -1 -14
-5z"/>
<path d="M1060 430 c0 -57 4 -80 13 -80 8 0 12 23 12 80 0 57 -4 80 -12 80 -9
0 -13 -23 -13 -80z"/>
<path d="M1110 430 c0 -64 3 -80 15 -80 12 0 15 16 15 80 0 64 -3 80 -15 80
-12 0 -15 -16 -15 -80z"/>
<path d="M1160 500 c0 -5 18 -10 40 -10 l40 0 0 -70 c0 -56 3 -70 15 -70 12 0
15 14 15 70 l0 70 40 0 c22 0 40 5 40 10 0 6 -38 10 -95 10 -57 0 -95 -4 -95
-10z"/>
<path d="M1770 430 c0 -64 3 -80 15 -80 11 0 15 12 15 50 l0 50 60 0 60 0 0
-50 c0 -38 4 -50 15 -50 11 0 15 13 15 54 0 63 -4 66 -92 66 -55 0 -60 2 -55
20 4 15 0 20 -14 20 -17 0 -19 -8 -19 -80z"/>
<path d="M2078 440 c-27 -38 -48 -74 -48 -80 0 -17 19 -11 32 10 11 17 24 20
81 20 62 0 68 -2 79 -25 11 -25 38 -35 38 -14 0 21 -104 159 -119 159 -9 0
-37 -32 -63 -70z m87 10 c8 -16 15 -30 15 -32 0 -2 -18 -3 -40 -3 -22 -1 -40
1 -40 3 0 10 35 62 42 62 4 0 14 -13 23 -30z"/>
<path d="M2280 429 c0 -68 2 -80 16 -77 12 2 16 19 17 81 2 67 0 77 -15 77
-16 0 -18 -11 -18 -81z"/>
<path d="M1390 473 c-8 -3 -18 -11 -22 -17 -12 -18 -9 -81 4 -94 14 -14 88
-16 88 -2 0 6 -9 10 -19 10 -26 0 -51 10 -51 21 0 5 34 9 75 9 l75 0 0 30 c0
19 -7 33 -19 40 -21 11 -105 12 -131 3z m104 -19 c9 -3 16 -12 16 -20 0 -10
-15 -14 -60 -14 -45 0 -60 3 -60 14 0 21 68 34 104 20z"/>
<path d="M1578 469 c-21 -12 -25 -88 -6 -107 14 -14 178 -17 178 -2 0 5 -35
10 -77 12 l-78 3 -3 38 c-2 25 1 37 10 38 7 1 40 2 73 2 33 1 62 7 65 12 7 14
-140 18 -162 4z"/>
<path d="M1977 373 c-13 -12 -7 -23 13 -23 11 0 20 7 20 15 0 15 -21 21 -33 8z"/>
</g>
</svg>
